<svg xmlns="http://www.w3.org/2000/svg" width="26" height="26" viewBox="0 0 26 26">
  <g id="track_order-icon" data-name="track order-icon" transform="translate(0 0.483)">
    <rect id="Rectangle_3085" data-name="Rectangle 3085" width="26" height="26" transform="translate(0 -0.483)" fill="rgba(255,255,255,0)"/>
    <g id="noun-target-2762925" transform="translate(3 3)" opacity="0.87">
      <path id="Path_5278" data-name="Path 5278" d="M80.547,2.1a8.006,8.006,0,0,1,7.487,7.487h1.588a.5.5,0,0,1,.51.454.508.508,0,0,1-.51.51H88.034a8.051,8.051,0,0,1-7.487,7.487v1.588a.508.508,0,0,1-.51.51.5.5,0,0,1-.454-.51V18.037A8.006,8.006,0,0,1,72.1,10.55H70.451a.5.5,0,0,1-.454-.51.488.488,0,0,1,.454-.454H72.1A7.961,7.961,0,0,1,79.583,2.1V.454A.488.488,0,0,1,80.036,0a.5.5,0,0,1,.51.454Zm-.51.964a7,7,0,1,0,7.033,6.976,6.971,6.971,0,0,0-7.033-6.976Z" transform="translate(-69.997 0)" opacity="0.87"/>
      <path id="Path_5279" data-name="Path 5279" d="M280.778,208.23a2.552,2.552,0,1,1-2.552,2.552A2.542,2.542,0,0,1,280.778,208.23Zm0,.964a1.623,1.623,0,0,0-1.588,1.588,1.585,1.585,0,0,0,1.588,1.588,1.551,1.551,0,0,0,1.588-1.588A1.585,1.585,0,0,0,280.778,209.194Z" transform="translate(-270.739 -200.743)" opacity="0.87"/>
    </g>
  </g>
</svg>
